# xmcd
#
# Track frame offsets:
# 150
# 15624
# 32660
# 47565
# 63549
# 76508
# 89843
# 106582
# 117186
# 130933
# 145223
# 158153
# 170694
# 182972
#
# Disc length: 2611 seconds
#
#
# Revision: 0
# Processed by: cddbd v1.5.1PL2 Copyright (c) Steve Scherf et al.
# Submitted via: FreeRIP 2.944 
#
DISCID=b40a310e
DTITLE=The Derailers - LIVE tracks
DYEAR=1997
DGENRE=Country
TTITLE0=Big City Blues
TTITLE1=Lies, Lies, Lies
TTITLE2=Lover's Lie
TTITLE3=Lost And Found
TTITLE4=Jackpot
TTITLE5=Wishful Thinkin'
TTITLE6=Dim Lights
TTITLE7=I'll Catch You When You Fall
TTITLE8=Painful Days and Sleepless Night
TTITLE9=My Heart's Ready
TTITLE10=I'm Your Man
TTITLE11=I Go Anywhere
TTITLE12=You Done Me Wrong
TTITLE13=Just One More Time
EXTD=
EXTT0=
EXTT1=
EXTT2=
EXTT3=
EXTT4=
EXTT5=
EXTT6=
EXTT7=
EXTT8=
EXTT9=
EXTT10=
EXTT11=
EXTT12=
EXTT13=
PLAYORDER=
